<mxfile host="app.diagrams.net" agent="Mozilla/5.0 (Macintosh; Intel Mac OS X 10_15_7) AppleWebKit/537.36 (KHTML, like Gecko) Chrome/132.0.0.0 Safari/537.36" version="26.0.11">
  <diagram name="Page-1" id="X6gK7tt8UTT8Ojb7SCYJ">
    <mxGraphModel dx="3141" dy="1121" grid="1" gridSize="10" guides="1" tooltips="1" connect="1" arrows="1" fold="1" page="1" pageScale="1" pageWidth="827" pageHeight="1169" math="0" shadow="0">
      <root>
        <mxCell id="0" />
        <mxCell id="1" parent="0" />
        <mxCell id="n8r9ZegKx676jyVd7q28-10" value="" style="edgeStyle=orthogonalEdgeStyle;rounded=0;orthogonalLoop=1;jettySize=auto;html=1;" edge="1" parent="1" source="n8r9ZegKx676jyVd7q28-1" target="n8r9ZegKx676jyVd7q28-4">
          <mxGeometry relative="1" as="geometry" />
        </mxCell>
        <mxCell id="n8r9ZegKx676jyVd7q28-1" value="Singup" style="rounded=0;whiteSpace=wrap;html=1;" vertex="1" parent="1">
          <mxGeometry x="-640" y="90" width="120" height="60" as="geometry" />
        </mxCell>
        <mxCell id="n8r9ZegKx676jyVd7q28-12" value="" style="edgeStyle=orthogonalEdgeStyle;rounded=0;orthogonalLoop=1;jettySize=auto;html=1;" edge="1" parent="1" source="n8r9ZegKx676jyVd7q28-2" target="n8r9ZegKx676jyVd7q28-5">
          <mxGeometry relative="1" as="geometry" />
        </mxCell>
        <mxCell id="n8r9ZegKx676jyVd7q28-2" value="Add Card" style="rounded=0;whiteSpace=wrap;html=1;" vertex="1" parent="1">
          <mxGeometry x="-230" y="90" width="120" height="60" as="geometry" />
        </mxCell>
        <mxCell id="n8r9ZegKx676jyVd7q28-16" value="" style="edgeStyle=orthogonalEdgeStyle;rounded=0;orthogonalLoop=1;jettySize=auto;html=1;" edge="1" parent="1" source="n8r9ZegKx676jyVd7q28-3" target="n8r9ZegKx676jyVd7q28-6">
          <mxGeometry relative="1" as="geometry" />
        </mxCell>
        <mxCell id="n8r9ZegKx676jyVd7q28-3" value="Trip In Progress" style="rounded=0;whiteSpace=wrap;html=1;" vertex="1" parent="1">
          <mxGeometry x="390" y="90" width="120" height="60" as="geometry" />
        </mxCell>
        <mxCell id="n8r9ZegKx676jyVd7q28-11" value="" style="edgeStyle=orthogonalEdgeStyle;rounded=0;orthogonalLoop=1;jettySize=auto;html=1;" edge="1" parent="1" source="n8r9ZegKx676jyVd7q28-4" target="n8r9ZegKx676jyVd7q28-2">
          <mxGeometry relative="1" as="geometry" />
        </mxCell>
        <mxCell id="n8r9ZegKx676jyVd7q28-4" value="Login" style="rounded=0;whiteSpace=wrap;html=1;" vertex="1" parent="1">
          <mxGeometry x="-440" y="90" width="120" height="60" as="geometry" />
        </mxCell>
        <mxCell id="n8r9ZegKx676jyVd7q28-13" value="" style="edgeStyle=orthogonalEdgeStyle;rounded=0;orthogonalLoop=1;jettySize=auto;html=1;" edge="1" parent="1" source="n8r9ZegKx676jyVd7q28-5" target="n8r9ZegKx676jyVd7q28-9">
          <mxGeometry relative="1" as="geometry" />
        </mxCell>
        <mxCell id="n8r9ZegKx676jyVd7q28-5" value="Fetch Available Vehicles" style="rounded=0;whiteSpace=wrap;html=1;" vertex="1" parent="1">
          <mxGeometry x="-10" y="90" width="120" height="60" as="geometry" />
        </mxCell>
        <mxCell id="n8r9ZegKx676jyVd7q28-17" value="" style="edgeStyle=orthogonalEdgeStyle;rounded=0;orthogonalLoop=1;jettySize=auto;html=1;" edge="1" parent="1" source="n8r9ZegKx676jyVd7q28-6" target="n8r9ZegKx676jyVd7q28-8">
          <mxGeometry relative="1" as="geometry" />
        </mxCell>
        <mxCell id="n8r9ZegKx676jyVd7q28-6" value="TripEnd" style="rounded=0;whiteSpace=wrap;html=1;" vertex="1" parent="1">
          <mxGeometry x="590" y="90" width="120" height="60" as="geometry" />
        </mxCell>
        <mxCell id="n8r9ZegKx676jyVd7q28-7" value="Trip Summary" style="rounded=0;whiteSpace=wrap;html=1;" vertex="1" parent="1">
          <mxGeometry x="990" y="90" width="120" height="60" as="geometry" />
        </mxCell>
        <mxCell id="n8r9ZegKx676jyVd7q28-18" value="" style="edgeStyle=orthogonalEdgeStyle;rounded=0;orthogonalLoop=1;jettySize=auto;html=1;" edge="1" parent="1" source="n8r9ZegKx676jyVd7q28-8" target="n8r9ZegKx676jyVd7q28-7">
          <mxGeometry relative="1" as="geometry" />
        </mxCell>
        <mxCell id="n8r9ZegKx676jyVd7q28-8" value="Rate the Trip" style="rounded=0;whiteSpace=wrap;html=1;" vertex="1" parent="1">
          <mxGeometry x="780" y="90" width="120" height="60" as="geometry" />
        </mxCell>
        <mxCell id="n8r9ZegKx676jyVd7q28-15" value="" style="edgeStyle=orthogonalEdgeStyle;rounded=0;orthogonalLoop=1;jettySize=auto;html=1;" edge="1" parent="1" source="n8r9ZegKx676jyVd7q28-9" target="n8r9ZegKx676jyVd7q28-3">
          <mxGeometry relative="1" as="geometry" />
        </mxCell>
        <mxCell id="n8r9ZegKx676jyVd7q28-9" value="Start Ride" style="rounded=0;whiteSpace=wrap;html=1;" vertex="1" parent="1">
          <mxGeometry x="200" y="90" width="120" height="60" as="geometry" />
        </mxCell>
      </root>
    </mxGraphModel>
  </diagram>
</mxfile>
